<svg xmlns="http://www.w3.org/2000/svg" viewBox="0 0 1000 213.3" width="1000" height="213.3" role="img" aria-label="&#7949;&#928;&#913;&#926;">
  <title>&#7949;&#928;&#913;&#926;</title>
  <path fill-rule="evenodd" fill="#175F6B" d="M836.8 156.3 L837.1 203.9 L1000.0 205.8 L998.8 156.7 L920.4 157.2 Z M987.6 83.5 L851.8 84.9 L852.0 130.7 L988.3 130.0 Z M999.1 8.7 L842.8 11.5 L843.7 60.1 L1000.0 56.6 Z M578.6 8.7 L460.1 10.6 L349.4 10.1 L349.4 57.3 L373.1 56.6 L373.5 148.2 L372.6 204.6 L435.7 204.6 L434.5 125.9 L435.0 55.2 L441.7 54.5 L492.1 54.1 L492.5 54.8 L493.0 128.4 L491.8 204.6 L555.1 204.6 L554.0 142.7 L554.2 55.2 L578.6 55.2 Z M68.6 5.8 L75.7 66.7 L96.9 67.2 L104.5 5.8 Z M32.7 5.8 L0.0 20.5 L29.5 74.8 L48.6 66.3 Z M698.5 0.0 L668.6 48.6 L587.8 184.3 L639.8 213.3 L658.0 175.4 L740.4 170.8 L765.2 213.1 L819.3 181.1 L796.5 147.1 L701.5 0.2 Z M698.7 86.1 L721.7 132.1 L675.7 134.9 Z M218.0 0.0 L188.0 48.6 L107.2 184.3 L159.3 213.3 L177.4 175.4 L259.8 170.8 L284.7 213.1 L338.8 181.1 L316.0 147.1 L220.9 0.2 Z M218.2 86.1 L241.2 132.1 L195.2 134.9 Z"/>
</svg>
